# xmcd
#
# Track frame offsets:
#	150
#	12562
#	27345
#	41463
#	54297
#	67919
#	80854
#	93005
#	108297
#	117841
#	127174
#	141540
#	155054
#	173443
#
# Disc length: 2488 seconds
#
# Revision: 1
# Processed by: cddbd v1.5.2PL0 Copyright (c) Steve Scherf et al.
# Submitted via: audiograbber 1.83.01
#
DISCID=b809b60e
DTITLE=Elvis Presley - Greatest hits - CD 3
DYEAR=2008
DGENRE=Blues
TTITLE0=Love me tender
TTITLE1=It's now or never
TTITLE2=Are you lonesome tonight
TTITLE3=Don't
TTITLE4=Can't help falling in love
TTITLE5=Love letters
TTITLE6=I want you I need you I love you
TTITLE7=That's when your heartaches begin
TTITLE8=True love
TTITLE9=Young and beautiful
TTITLE10=Doin' the best I can
TTITLE11=Something blue
TTITLE12=Just pretend
TTITLE13=It's impossible
EXTD=
EXTT0=
EXTT1=
EXTT2=
EXTT3=
EXTT4=
EXTT5=
EXTT6=
EXTT7=
EXTT8=
EXTT9=
EXTT10=
EXTT11=
EXTT12=
EXTT13=
PLAYORDER=
